# xmcd CD database file generated by Grip 3.2.0
# 
# Track frame offsets:
#       150
#       23051
#       41160
#       58068
#       79215
#       95190
#       106287
# 
# Disc length: 1630 seconds
# 
# Revision: 2
# Processed by: cddbd v1.5.2PL0 Copyright (c) Steve Scherf et al.
# Submitted via: Grip 3.2.0
# 
DISCID=5a065c07
DTITLE=Enterprise Blues Band - Enterprise Blues Band
DYEAR=2005
DGENRE=Other
TTITLE0=Enterprise Blues
TTITLE1=Trekkie Deckie
TTITLE2=Red Shirt Boogie Blues
TTITLE3=Traveling Through Space
TTITLE4=Star Trek Woman Jones
TTITLE5=Enterprising On
TTITLE6=Get Me To The Holodeck
EXTD=
EXTT0=
EXTT1=
EXTT2=
EXTT3=
EXTT4=
EXTT5=
EXTT6=
PLAYORDER=
